<?xml version="1.0" encoding="utf-8"?>
<svg viewBox="0 0 500 500" xmlns="http://www.w3.org/2000/svg">
  <path class="st0" d="M 196.911 214.923 C 196.911 218.623 197.311 221.623 198.011 223.823 C 198.811 226.023 199.811 228.423 201.211 231.023 C 201.711 231.823 201.911 232.623 201.911 233.323 C 201.911 234.323 201.311 235.323 200.011 236.323 L 193.711 240.523 C 192.811 241.123 191.911 241.423 191.111 241.423 C 190.111 241.423 189.111 240.923 188.111 240.023 C 186.711 238.523 185.511 236.923 184.511 235.323 C 183.511 233.623 182.511 231.723 181.411 229.423 C 173.611 238.623 163.811 243.223 152.011 243.223 C 143.611 243.223 136.911 240.823 132.011 236.023 C 127.111 231.223 124.611 224.823 124.611 216.823 C 124.611 208.323 127.611 201.423 133.711 196.223 C 139.811 191.023 147.911 188.423 158.211 188.423 C 161.611 188.423 165.111 188.723 168.811 189.223 C 172.511 189.723 176.311 190.523 180.311 191.423 L 180.311 184.123 C 180.311 176.523 178.711 171.223 175.611 168.123 C 172.411 165.023 167.011 163.523 159.311 163.523 C 155.811 163.523 152.211 163.923 148.511 164.823 C 144.811 165.723 141.211 166.823 137.711 168.223 C 136.111 168.923 134.911 169.323 134.211 169.523 C 133.511 169.723 133.011 169.823 132.611 169.823 C 131.211 169.823 130.511 168.823 130.511 166.723 L 130.511 161.823 C 130.511 160.223 130.711 159.023 131.211 158.323 C 131.711 157.623 132.611 156.923 134.011 156.223 C 137.511 154.423 141.711 152.923 146.611 151.723 C 151.511 150.423 156.711 149.823 162.211 149.823 C 174.111 149.823 182.811 152.523 188.411 157.923 C 193.911 163.323 196.711 171.523 196.711 182.523 L 196.711 214.923 L 196.911 214.923 Z M 156.311 230.123 C 159.611 230.123 163.011 229.523 166.611 228.323 C 170.211 227.123 173.411 224.923 176.111 221.923 C 177.711 220.023 178.911 217.923 179.511 215.523 C 180.111 213.123 180.511 210.223 180.511 206.823 L 180.511 202.623 C 177.611 201.923 174.511 201.323 171.311 200.923 C 168.111 200.523 165.011 200.323 161.911 200.323 C 155.211 200.323 150.311 201.623 147.011 204.323 C 143.711 207.023 142.111 210.823 142.111 215.823 C 142.111 220.523 143.311 224.023 145.811 226.423 C 148.211 228.923 151.711 230.123 156.311 230.123 Z M 236.611 240.923 C 234.811 240.923 233.611 240.623 232.811 239.923 C 232.011 239.323 231.311 237.923 230.711 236.023 L 207.211 158.723 C 206.611 156.723 206.311 155.423 206.311 154.723 C 206.311 153.123 207.111 152.223 208.711 152.223 L 218.511 152.223 C 220.411 152.223 221.711 152.523 222.411 153.223 C 223.211 153.823 223.811 155.223 224.411 157.123 L 241.211 223.323 L 256.811 157.123 C 257.311 155.123 257.911 153.823 258.711 153.223 C 259.511 152.623 260.911 152.223 262.711 152.223 L 270.711 152.223 C 272.611 152.223 273.911 152.523 274.711 153.223 C 275.511 153.823 276.211 155.223 276.611 157.123 L 292.411 224.123 L 309.711 157.123 C 310.311 155.123 311.011 153.823 311.711 153.223 C 312.511 152.623 313.811 152.223 315.611 152.223 L 324.911 152.223 C 326.511 152.223 327.411 153.023 327.411 154.723 C 327.411 155.223 327.311 155.723 327.211 156.323 C 327.111 156.923 326.911 157.723 326.511 158.823 L 302.411 236.123 C 301.811 238.123 301.111 239.423 300.311 240.023 C 299.511 240.623 298.211 241.023 296.511 241.023 L 287.911 241.023 C 286.011 241.023 284.711 240.723 283.911 240.023 C 283.111 239.323 282.411 238.023 282.011 236.023 L 266.511 171.523 L 251.111 235.923 C 250.611 237.923 250.011 239.223 249.211 239.923 C 248.411 240.623 247.011 240.923 245.211 240.923 L 236.611 240.923 Z M 365.111 243.623 C 359.911 243.623 354.711 243.023 349.711 241.823 C 344.711 240.623 340.811 239.323 338.211 237.823 C 336.611 236.923 335.511 235.923 335.111 235.023 C 334.711 234.123 334.511 233.123 334.511 232.223 L 334.511 227.123 C 334.511 225.023 335.311 224.023 336.811 224.023 C 337.411 224.023 338.011 224.123 338.611 224.323 C 339.211 224.523 340.111 224.923 341.111 225.323 C 344.511 226.823 348.211 228.023 352.111 228.823 C 356.111 229.623 360.011 230.023 364.011 230.023 C 370.311 230.023 375.211 228.923 378.611 226.723 C 382.011 224.523 383.811 221.323 383.811 217.223 C 383.811 214.423 382.911 212.123 381.111 210.223 C 379.311 208.323 375.911 206.623 371.011 205.023 L 356.511 200.523 C 349.211 198.223 343.811 194.823 340.511 190.323 C 337.211 185.923 335.511 181.023 335.511 175.823 C 335.511 171.623 336.411 167.923 338.211 164.723 C 340.011 161.523 342.411 158.723 345.411 156.523 C 348.411 154.223 351.811 152.523 355.811 151.323 C 359.811 150.123 364.011 149.623 368.411 149.623 C 370.611 149.623 372.911 149.723 375.111 150.023 C 377.411 150.323 379.511 150.723 381.611 151.123 C 383.611 151.623 385.511 152.123 387.311 152.723 C 389.111 153.323 390.511 153.923 391.511 154.523 C 392.911 155.323 393.911 156.123 394.511 157.023 C 395.111 157.823 395.411 158.923 395.411 160.323 L 395.411 165.023 C 395.411 167.123 394.611 168.223 393.111 168.223 C 392.311 168.223 391.011 167.823 389.311 167.023 C 383.611 164.423 377.211 163.123 370.111 163.123 C 364.411 163.123 359.911 164.023 356.811 165.923 C 353.711 167.823 352.111 170.723 352.111 174.823 C 352.111 177.623 353.111 180.023 355.111 181.923 C 357.111 183.823 360.811 185.723 366.111 187.423 L 380.311 191.923 C 387.511 194.223 392.711 197.423 395.811 201.523 C 398.911 205.623 400.411 210.323 400.411 215.523 C 400.411 219.823 399.511 223.723 397.811 227.123 C 396.011 230.523 393.611 233.523 390.511 235.923 C 387.411 238.423 383.711 240.223 379.411 241.523 C 374.911 242.923 370.211 243.623 365.111 243.623 Z" style="fill: rgb(255, 255, 255);"/>
  <path class="st1" d="M 384.011 292.223 C 351.111 316.523 303.311 329.423 262.211 329.423 C 204.611 329.423 152.711 308.123 113.511 272.723 C 110.411 269.923 113.211 266.123 116.911 268.323 C 159.311 292.923 211.611 307.823 265.711 307.823 C 302.211 307.823 342.311 300.223 379.211 284.623 C 384.711 282.123 389.411 288.223 384.011 292.223 Z" style="fill: rgb(2, 117, 216);"/>
  <path class="st1" d="M 397.711 276.623 C 393.511 271.223 369.911 274.023 359.211 275.323 C 356.011 275.723 355.511 272.923 358.411 270.823 C 377.211 257.623 408.111 261.423 411.711 265.823 C 415.311 270.323 410.711 301.223 393.111 316.023 C 390.411 318.323 387.811 317.123 389.011 314.123 C 393.011 304.223 401.911 281.923 397.711 276.623 Z" style="fill: rgb(2, 117, 216);"/>
</svg>